<?xml version="1.0" standalone="no"?>
<!DOCTYPE svg PUBLIC "-//W3C//DTD SVG 20010904//EN"
 "http://www.w3.org/TR/2001/REC-SVG-20010904/DTD/svg10.dtd">
<svg version="1.0" xmlns="http://www.w3.org/2000/svg"
 width="144.000000pt" height="144.000000pt" viewBox="0 0 144.000000 144.000000"
 preserveAspectRatio="xMidYMid meet">
<metadata>
Created by potrace 1.11, written by Peter Selinger 2001-2013
</metadata>
<g transform="translate(0.000000,144.000000) scale(0.100000,-0.100000)"
fill="#000000" stroke="none">
<path d="M674 1358 c-3 -4 -12 -8 -20 -8 -8 0 -29 -13 -47 -30 -18 -16 -35
-30 -39 -30 -5 0 -8 -6 -8 -13 0 -7 -11 -25 -25 -40 -14 -15 -23 -27 -20 -27
3 0 -1 -10 -9 -22 -23 -37 -76 -204 -81 -253 -1 -11 -5 -30 -9 -41 -4 -12 -9
-55 -12 -95 -2 -41 -6 -89 -8 -106 -2 -18 1 -33 6 -33 5 0 7 -4 4 -9 -10 -16
25 -17 324 -16 333 3 313 2 305 15 -3 6 -2 10 3 10 5 0 8 15 6 33 -3 17 -6 64
-8 104 -3 40 -7 80 -10 90 -3 10 -8 36 -12 58 -5 35 -34 133 -51 175 -3 8 -5
18 -5 23 1 4 -3 7 -8 7 -5 0 -9 3 -8 8 2 11 -13 43 -41 87 -34 52 -54 71 -96
94 -19 10 -33 20 -30 22 2 3 -19 5 -46 5 -28 0 -52 -4 -55 -8z"/>
<path d="M468 1322 c-10 -2 -18 -7 -18 -12 0 -4 -8 -7 -17 -6 -10 2 -20 0 -23
-3 -13 -17 -83 -51 -92 -45 -6 4 -9 3 -6 -2 3 -5 -4 -18 -15 -29 -11 -11 -16
-13 -11 -5 15 27 -97 -85 -135 -135 -22 -27 -52 -75 -67 -105 -16 -30 -33 -58
-39 -62 -5 -4 -7 -8 -3 -8 4 0 -2 -26 -13 -57 -11 -32 -23 -92 -26 -134 -5
-69 -4 -76 13 -81 16 -4 268 -3 299 1 6 0 11 29 12 64 2 128 21 240 63 387 8
25 13 48 12 53 -1 4 2 7 8 7 6 0 10 9 10 20 0 11 5 20 10 20 6 0 10 7 10 16 0
9 9 27 20 41 11 14 20 32 20 40 0 8 5 11 10 8 12 -7 13 5 2 20 -4 6 -15 9 -24
7z"/>
<path d="M930 1319 c0 -5 4 -9 8 -9 5 0 15 -12 23 -27 7 -16 27 -50 43 -78 15
-27 28 -51 27 -52 -2 -4 3 -22 12 -43 13 -30 47 -164 43 -168 -3 -2 1 -20 8
-40 6 -21 11 -54 11 -74 -1 -21 1 -38 4 -38 4 0 6 -29 5 -65 -2 -92 0 -93 171
-90 77 1 144 3 149 4 13 2 -1 149 -20 201 -9 25 -18 53 -20 63 -10 54 -171
285 -199 286 -5 1 -23 13 -40 29 -16 15 -47 36 -67 47 -21 11 -38 23 -38 27 0
4 -7 4 -17 1 -11 -4 -14 -3 -9 5 5 8 -2 12 -19 12 -14 0 -24 3 -22 8 3 4 -8 7
-24 8 -16 1 -29 -3 -29 -7z"/>
<path d="M658 562 c-21 -4 -20 4 -23 -151 -2 -123 -3 -125 -30 -147 -44 -35
-115 -10 -115 40 0 12 -10 37 -23 57 -20 32 -26 35 -67 35 -39 -1 -47 -5 -66
-34 -21 -31 -24 -58 -9 -82 3 -6 1 -10 -4 -10 -12 0 6 -39 22 -51 5 -3 8 -9 8
-13 -3 -19 2 -27 35 -59 45 -44 116 -74 167 -72 22 2 37 -2 37 -9 0 -7 3 -8 8
0 4 5 29 18 56 29 41 15 120 75 99 75 -3 0 1 8 9 18 30 33 45 113 44 239 -1
67 -5 125 -9 129 -7 8 -111 12 -139 6z"/>
</g>
</svg>
